<svg width="1080" height="1080" viewBox="0 0 1080 1080" fill="none" xmlns="http://www.w3.org/2000/svg">
<g clip-path="url(#clip0_682_96)">
<path d="M270 900V810C270 738.392 298.446 669.716 349.081 619.081C399.716 568.446 468.392 540 540 540C611.608 540 680.284 568.446 730.919 619.081C781.554 669.716 810 738.392 810 810V900C810 911.935 805.259 923.381 796.82 931.82C788.381 940.259 776.935 945 765 945H315C303.065 945 291.619 940.259 283.18 931.82C274.741 923.381 270 911.935 270 900Z" stroke="#40BA21" stroke-width="45" stroke-linecap="round" stroke-linejoin="round"/>
<path d="M270 180V270C270 341.608 298.446 410.284 349.081 460.919C399.716 511.554 468.392 540 540 540C611.608 540 680.284 511.554 730.919 460.919C781.554 410.284 810 341.608 810 270V180C810 168.065 805.259 156.619 796.82 148.18C788.381 139.741 776.935 135 765 135H315C303.065 135 291.619 139.741 283.18 148.18C274.741 156.619 270 168.065 270 180Z" stroke="#40BA21" stroke-width="45" stroke-linecap="round" stroke-linejoin="round"/>
</g>
<defs>
<clipPath id="clip0_682_96">
<rect width="1080" height="1080" fill="white"/>
</clipPath>
</defs>
</svg>
